<svg id="visual" viewBox="0 0 900 600" width="900" height="600" xmlns="http://www.w3.org/2000/svg" xmlns:xlink="http://www.w3.org/1999/xlink" version="1.1"><g stroke-width="1" stroke-linejoin="bevel"><path d="M493 314L622 310L511 223Z" fill="#700000" stroke="#700000"></path><path d="M622 310L611 175L511 223Z" fill="#000000" stroke="#000000"></path><path d="M493 314L626 392L622 310Z" fill="#a20505" stroke="#a20505"></path><path d="M493 314L496 426L626 392Z" fill="#930000" stroke="#930000"></path><path d="M683 386L715 295L622 310Z" fill="#810000" stroke="#810000"></path><path d="M622 310L714 229L611 175Z" fill="#c11110" stroke="#c11110"></path><path d="M715 295L714 229L622 310Z" fill="#700000" stroke="#700000"></path><path d="M630 465L683 386L626 392Z" fill="#a20505" stroke="#a20505"></path><path d="M626 392L683 386L622 310Z" fill="#b10b0a" stroke="#b10b0a"></path><path d="M505 94L398 198L511 223Z" fill="#000000" stroke="#000000"></path><path d="M511 223L398 198L493 314Z" fill="#c11110" stroke="#c11110"></path><path d="M493 314L386 369L496 426Z" fill="#e11b1b" stroke="#e11b1b"></path><path d="M638 68L505 94L611 175Z" fill="#700000" stroke="#700000"></path><path d="M611 175L505 94L511 223Z" fill="#700000" stroke="#700000"></path><path d="M364 336L386 369L493 314Z" fill="#5f0000" stroke="#5f0000"></path><path d="M496 426L630 465L626 392Z" fill="#a20505" stroke="#a20505"></path><path d="M398 198L364 336L493 314Z" fill="#d11615" stroke="#d11615"></path><path d="M723 120L638 68L611 175Z" fill="#5f0000" stroke="#5f0000"></path><path d="M771 187L723 120L714 229Z" fill="#000000" stroke="#000000"></path><path d="M714 229L723 120L611 175Z" fill="#d11615" stroke="#d11615"></path><path d="M833 265L771 187L714 229Z" fill="#000000" stroke="#000000"></path><path d="M833 265L714 229L715 295Z" fill="#b10b0a" stroke="#b10b0a"></path><path d="M398 198L323 293L364 336Z" fill="#500000" stroke="#500000"></path><path d="M364 336L329 425L386 369Z" fill="#000000" stroke="#000000"></path><path d="M799 532L778 361L683 386Z" fill="#930000" stroke="#930000"></path><path d="M683 386L778 361L715 295Z" fill="#810000" stroke="#810000"></path><path d="M386 369L478 502L496 426Z" fill="#e11b1b" stroke="#e11b1b"></path><path d="M496 426L478 502L630 465Z" fill="#700000" stroke="#700000"></path><path d="M422 533L478 502L386 369Z" fill="#e11b1b" stroke="#e11b1b"></path><path d="M483 0L387 89L505 94Z" fill="#c11110" stroke="#c11110"></path><path d="M505 94L387 89L398 198Z" fill="#5f0000" stroke="#5f0000"></path><path d="M398 198L266 209L323 293Z" fill="#810000" stroke="#810000"></path><path d="M323 293L329 425L364 336Z" fill="#810000" stroke="#810000"></path><path d="M387 89L323 133L398 198Z" fill="#b10b0a" stroke="#b10b0a"></path><path d="M778 361L833 265L715 295Z" fill="#d11615" stroke="#d11615"></path><path d="M762 0L686 0L723 120Z" fill="#930000" stroke="#930000"></path><path d="M686 0L574 0L638 68Z" fill="#c11110" stroke="#c11110"></path><path d="M638 68L574 0L505 94Z" fill="#b10b0a" stroke="#b10b0a"></path><path d="M329 425L422 533L386 369Z" fill="#000000" stroke="#000000"></path><path d="M567 600L703 537L630 465Z" fill="#e11b1b" stroke="#e11b1b"></path><path d="M574 0L483 0L505 94Z" fill="#b10b0a" stroke="#b10b0a"></path><path d="M387 89L296 0L323 133Z" fill="#a20505" stroke="#a20505"></path><path d="M630 465L703 537L683 386Z" fill="#b10b0a" stroke="#b10b0a"></path><path d="M778 361L900 327L833 265Z" fill="#930000" stroke="#930000"></path><path d="M567 600L630 465L478 502Z" fill="#a20505" stroke="#a20505"></path><path d="M323 133L266 209L398 198Z" fill="#a20505" stroke="#a20505"></path><path d="M323 293L204 313L329 425Z" fill="#b10b0a" stroke="#b10b0a"></path><path d="M723 120L686 0L638 68Z" fill="#810000" stroke="#810000"></path><path d="M838 97L723 120L771 187Z" fill="#810000" stroke="#810000"></path><path d="M515 600L567 600L478 502Z" fill="#b10b0a" stroke="#b10b0a"></path><path d="M422 533L515 600L478 502Z" fill="#500000" stroke="#500000"></path><path d="M483 0L372 0L387 89Z" fill="#c11110" stroke="#c11110"></path><path d="M323 133L211 166L266 209Z" fill="#e11b1b" stroke="#e11b1b"></path><path d="M329 425L339 534L422 533Z" fill="#700000" stroke="#700000"></path><path d="M422 533L405 600L515 600Z" fill="#500000" stroke="#500000"></path><path d="M168 501L339 534L329 425Z" fill="#e11b1b" stroke="#e11b1b"></path><path d="M900 136L838 97L771 187Z" fill="#b10b0a" stroke="#b10b0a"></path><path d="M838 97L762 0L723 120Z" fill="#5f0000" stroke="#5f0000"></path><path d="M900 421L900 327L778 361Z" fill="#810000" stroke="#810000"></path><path d="M833 265L900 218L771 187Z" fill="#a20505" stroke="#a20505"></path><path d="M900 327L900 218L833 265Z" fill="#d11615" stroke="#d11615"></path><path d="M567 600L696 600L703 537Z" fill="#500000" stroke="#500000"></path><path d="M703 537L799 532L683 386Z" fill="#a20505" stroke="#a20505"></path><path d="M789 600L799 532L703 537Z" fill="#5f0000" stroke="#5f0000"></path><path d="M211 166L204 313L266 209Z" fill="#a20505" stroke="#a20505"></path><path d="M266 209L204 313L323 293Z" fill="#a20505" stroke="#a20505"></path><path d="M339 534L405 600L422 533Z" fill="#930000" stroke="#930000"></path><path d="M166 85L211 166L323 133Z" fill="#a20505" stroke="#a20505"></path><path d="M799 532L900 421L778 361Z" fill="#500000" stroke="#500000"></path><path d="M900 218L900 136L771 187Z" fill="#700000" stroke="#700000"></path><path d="M838 97L900 0L762 0Z" fill="#c11110" stroke="#c11110"></path><path d="M372 0L296 0L387 89Z" fill="#700000" stroke="#700000"></path><path d="M696 600L789 600L703 537Z" fill="#700000" stroke="#700000"></path><path d="M799 532L900 516L900 421Z" fill="#500000" stroke="#500000"></path><path d="M111 285L182 425L204 313Z" fill="#b10b0a" stroke="#b10b0a"></path><path d="M204 313L182 425L329 425Z" fill="#000000" stroke="#000000"></path><path d="M339 534L289 600L405 600Z" fill="#500000" stroke="#500000"></path><path d="M900 600L900 516L799 532Z" fill="#b10b0a" stroke="#b10b0a"></path><path d="M168 501L289 600L339 534Z" fill="#500000" stroke="#500000"></path><path d="M296 0L166 85L323 133Z" fill="#930000" stroke="#930000"></path><path d="M211 166L111 285L204 313Z" fill="#500000" stroke="#500000"></path><path d="M900 136L900 0L838 97Z" fill="#e11b1b" stroke="#e11b1b"></path><path d="M85 201L111 285L211 166Z" fill="#000000" stroke="#000000"></path><path d="M108 509L168 501L182 425Z" fill="#500000" stroke="#500000"></path><path d="M182 425L168 501L329 425Z" fill="#930000" stroke="#930000"></path><path d="M296 0L203 0L166 85Z" fill="#5f0000" stroke="#5f0000"></path><path d="M789 600L900 600L799 532Z" fill="#810000" stroke="#810000"></path><path d="M77 123L211 166L166 85Z" fill="#5f0000" stroke="#5f0000"></path><path d="M77 123L85 201L211 166Z" fill="#500000" stroke="#500000"></path><path d="M108 509L178 600L168 501Z" fill="#500000" stroke="#500000"></path><path d="M168 501L178 600L289 600Z" fill="#e11b1b" stroke="#e11b1b"></path><path d="M75 410L182 425L111 285Z" fill="#b10b0a" stroke="#b10b0a"></path><path d="M0 377L75 410L111 285Z" fill="#000000" stroke="#000000"></path><path d="M75 410L108 509L182 425Z" fill="#c11110" stroke="#c11110"></path><path d="M85 0L77 123L166 85Z" fill="#000000" stroke="#000000"></path><path d="M85 201L0 297L111 285Z" fill="#d11615" stroke="#d11615"></path><path d="M203 0L85 0L166 85Z" fill="#c11110" stroke="#c11110"></path><path d="M0 205L0 297L85 201Z" fill="#810000" stroke="#810000"></path><path d="M75 410L0 521L108 509Z" fill="#000000" stroke="#000000"></path><path d="M0 205L85 201L77 123Z" fill="#d11615" stroke="#d11615"></path><path d="M0 77L0 205L77 123Z" fill="#a20505" stroke="#a20505"></path><path d="M0 297L0 377L111 285Z" fill="#d11615" stroke="#d11615"></path><path d="M108 509L76 600L178 600Z" fill="#000000" stroke="#000000"></path><path d="M0 521L76 600L108 509Z" fill="#b10b0a" stroke="#b10b0a"></path><path d="M85 0L0 77L77 123Z" fill="#500000" stroke="#500000"></path><path d="M0 377L0 521L75 410Z" fill="#500000" stroke="#500000"></path><path d="M85 0L0 0L0 77Z" fill="#a20505" stroke="#a20505"></path><path d="M0 521L0 600L76 600Z" fill="#5f0000" stroke="#5f0000"></path></g></svg>